<svg xmlns="http://www.w3.org/2000/svg" viewBox="1312.0 496.0 1473.0 891.0" class="jly-logo-icon">
  <defs>
    <linearGradient id="jlyGoldGradient" x1="0%" y1="0%" x2="100%" y2="100%">
      <stop offset="0%" stop-color="#f0b310" />
      <stop offset="100%" stop-color="#d18a00" />
    </linearGradient>
  </defs>
  <path d="M1975.00,668.00 L1972.00,668.00 L1971.00,666.00 L1964.00,664.00 L1961.00,660.00 L1958.00,660.00 L1953.00,656.00 L1948.00,656.00 L1943.00,652.00 L1938.00,652.00 L1937.00,650.00 L1932.00,650.00 L1931.00,648.00 L1924.00,648.00 L1923.00,646.00 L1916.00,646.00 L1915.00,644.00 L1904.00,644.00 L1903.00,642.00 L1610.00,642.00 L1609.00,644.00 L1600.00,644.00 L1599.00,646.00 L1594.00,646.00 L1593.00,648.00 L1588.00,648.00 L1587.00,650.00 L1582.00,650.00 L1581.00,652.00 L1574.00,654.00 L1571.00,658.00 L1568.00,658.00 L1561.00,666.00 L1558.00,666.00 L1550.00,674.00 L1550.00,677.00 L1544.00,682.00 L1544.00,685.00 L1540.00,688.00 L1540.00,691.00 L1538.00,692.00 L1538.00,695.00 L1534.00,700.00 L1534.00,705.00 L1530.00,710.00 L1530.00,717.00 L1528.00,718.00 L1528.00,781.00 L1700.00,782.00 L1700.00,1115.00 L1698.00,1116.00 L1698.00,1125.00 L1696.00,1126.00 L1696.00,1133.00 L1694.00,1134.00 L1694.00,1139.00 L1692.00,1140.00 L1692.00,1143.00 L1690.00,1144.00 L1690.00,1147.00 L1688.00,1148.00 L1688.00,1151.00 L1686.00,1152.00 L1684.00,1159.00 L1676.00,1166.00 L1676.00,1169.00 L1671.00,1174.00 L1668.00,1174.00 L1661.00,1182.00 L1658.00,1182.00 L1655.00,1186.00 L1652.00,1186.00 L1651.00,1188.00 L1646.00,1188.00 L1641.00,1192.00 L1636.00,1192.00 L1635.00,1194.00 L1628.00,1194.00 L1627.00,1196.00 L1584.00,1196.00 L1583.00,1194.00 L1576.00,1194.00 L1575.00,1192.00 L1570.00,1192.00 L1569.00,1190.00 L1564.00,1190.00 L1563.00,1188.00 L1556.00,1186.00 L1553.00,1182.00 L1550.00,1182.00 L1547.00,1178.00 L1544.00,1178.00 L1531.00,1165.00 L1531.00,1162.00 L1525.00,1157.00 L1525.00,1154.00 L1523.00,1153.00 L1523.00,1150.00 L1521.00,1149.00 L1521.00,1146.00 L1519.00,1145.00 L1519.00,1142.00 L1515.00,1137.00 L1513.00,1126.00 L1511.00,1125.00 L1511.00,1116.00 L1509.00,1115.00 L1509.00,1098.00 L1507.00,1097.00 L1507.00,1092.00 L1509.00,1091.00 L1509.00,1088.00 L1507.00,1086.00 L1362.00,1086.00 L1362.00,1129.00 L1364.00,1130.00 L1364.00,1143.00 L1366.00,1144.00 L1366.00,1153.00 L1368.00,1154.00 L1370.00,1169.00 L1372.00,1170.00 L1372.00,1175.00 L1374.00,1176.00 L1374.00,1181.00 L1376.00,1182.00 L1378.00,1193.00 L1380.00,1194.00 L1380.00,1197.00 L1384.00,1202.00 L1384.00,1207.00 L1386.00,1208.00 L1386.00,1211.00 L1388.00,1212.00 L1390.00,1219.00 L1394.00,1222.00 L1396.00,1229.00 L1400.00,1232.00 L1400.00,1235.00 L1404.00,1238.00 L1404.00,1241.00 L1408.00,1244.00 L1408.00,1247.00 L1414.00,1252.00 L1414.00,1255.00 L1444.00,1285.00 L1447.00,1285.00 L1452.00,1291.00 L1455.00,1291.00 L1460.00,1297.00 L1463.00,1297.00 L1466.00,1301.00 L1473.00,1303.00 L1476.00,1307.00 L1479.00,1307.00 L1480.00,1309.00 L1483.00,1309.00 L1484.00,1311.00 L1487.00,1311.00 L1488.00,1313.00 L1491.00,1313.00 L1496.00,1317.00 L1501.00,1317.00 L1506.00,1321.00 L1511.00,1321.00 L1512.00,1323.00 L1517.00,1323.00 L1518.00,1325.00 L1523.00,1325.00 L1524.00,1327.00 L1529.00,1327.00 L1530.00,1329.00 L1537.00,1329.00 L1538.00,1331.00 L1547.00,1331.00 L1548.00,1333.00 L1557.00,1333.00 L1558.00,1335.00 L1573.00,1335.00 L1574.00,1337.00 L1635.00,1337.00 L1636.00,1335.00 L1651.00,1335.00 L1652.00,1333.00 L1661.00,1333.00 L1662.00,1331.00 L1671.00,1331.00 L1672.00,1329.00 L1679.00,1329.00 L1680.00,1327.00 L1685.00,1327.00 L1686.00,1325.00 L1691.00,1325.00 L1692.00,1323.00 L1703.00,1321.00 L1708.00,1317.00 L1713.00,1317.00 L1714.00,1315.00 L1717.00,1315.00 L1718.00,1313.00 L1721.00,1313.00 L1722.00,1311.00 L1725.00,1311.00 L1726.00,1309.00 L1733.00,1307.00 L1736.00,1303.00 L1743.00,1301.00 L1746.00,1297.00 L1749.00,1297.00 L1752.00,1293.00 L1755.00,1293.00 L1760.00,1287.00 L1763.00,1287.00 L1778.00,1271.00 L1781.00,1271.00 L1783.00,1269.00 L1783.00,1266.00 L1797.00,1253.00 L1797.00,1250.00 L1803.00,1245.00 L1803.00,1242.00 L1809.00,1237.00 L1811.00,1230.00 L1815.00,1227.00 L1815.00,1224.00 L1817.00,1223.00 L1817.00,1220.00 L1819.00,1219.00 L1819.00,1216.00 L1821.00,1215.00 L1821.00,1212.00 L1823.00,1211.00 L1823.00,1208.00 L1825.00,1207.00 L1825.00,1204.00 L1829.00,1199.00 L1829.00,1194.00 L1831.00,1193.00 L1831.00,1188.00 L1835.00,1183.00 L1835.00,1176.00 L1837.00,1175.00 L1837.00,1170.00 L1839.00,1169.00 L1839.00,1162.00 L1841.00,1161.00 L1841.00,1154.00 L1843.00,1153.00 L1843.00,1142.00 L1845.00,1141.00 L1845.00,1128.00 L1847.00,1127.00 L1847.00,782.00 L1905.00,781.00 L1906.00,783.00 L1915.00,783.00 L1916.00,785.00 L1931.00,787.00 L1932.00,789.00 L1943.00,791.00 L1944.00,793.00 L1947.00,793.00 L1952.00,797.00 L1957.00,797.00 L1958.00,799.00 L1961.00,799.00 L1962.00,801.00 L1969.00,803.00 L1972.00,807.00 L1975.00,807.00 L1984.00,815.00 L1987.00,815.00 L1998.00,827.00 L2001.00,827.00 L2004.00,830.00 L2004.00,833.00 L2016.00,844.00 L2016.00,847.00 L2022.00,852.00 L2022.00,855.00 L2030.00,864.00 L2030.00,867.00 L2032.00,868.00 L2032.00,871.00 L2036.00,876.00 L2036.00,881.00 L2040.00,886.00 L2040.00,891.00 L2044.00,896.00 L2044.00,901.00 L2046.00,902.00 L2046.00,909.00 L2048.00,910.00 L2049.00,917.00 L2049.00,792.00 L2047.00,791.00 L2047.00,780.00 L2045.00,779.00 L2045.00,770.00 L2043.00,769.00 L2043.00,762.00 L2041.00,761.00 L2041.00,756.00 L2039.00,755.00 L2037.00,744.00 L2035.00,743.00 L2035.00,740.00 L2033.00,739.00 L2033.00,736.00 L2031.00,735.00 L2031.00,732.00 L2029.00,731.00 L2029.00,728.00 L2027.00,727.00 L2025.00,720.00 L2017.00,711.00 L2017.00,708.00 L2011.00,703.00 L2011.00,700.00 L1991.00,680.00 L1988.00,680.00 L1981.00,672.00 L1978.00,672.00 L1975.00,668.00 Z" class="logo-base-letters" />
  <path d="M1902.00,822.00 L1902.00,1129.00 L1900.00,1130.00 L1900.00,1147.00 L1898.00,1148.00 L1896.00,1171.00 L1894.00,1172.00 L1892.00,1187.00 L1890.00,1188.00 L1890.00,1193.00 L1888.00,1194.00 L1888.00,1199.00 L1886.00,1200.00 L1884.00,1211.00 L1880.00,1216.00 L1880.00,1221.00 L1878.00,1222.00 L1878.00,1225.00 L1876.00,1226.00 L1876.00,1229.00 L1874.00,1230.00 L1874.00,1233.00 L1872.00,1234.00 L1872.00,1237.00 L1870.00,1238.00 L1870.00,1241.00 L1868.00,1242.00 L1868.00,1245.00 L1866.00,1246.00 L1864.00,1253.00 L1860.00,1256.00 L1858.00,1263.00 L1854.00,1266.00 L1854.00,1269.00 L1848.00,1274.00 L1848.00,1277.00 L1840.00,1284.00 L1840.00,1287.00 L1815.00,1312.00 L1812.00,1312.00 L1803.00,1322.00 L1800.00,1322.00 L1793.00,1330.00 L1790.00,1330.00 L1790.00,1333.00 L2183.00,1333.00 L2184.00,1331.00 L2199.00,1331.00 L2200.00,1329.00 L2209.00,1329.00 L2214.00,1325.00 L2219.00,1325.00 L2220.00,1323.00 L2227.00,1321.00 L2230.00,1317.00 L2233.00,1317.00 L2236.00,1313.00 L2239.00,1313.00 L2251.00,1301.00 L2251.00,1298.00 L2259.00,1289.00 L2259.00,1286.00 L2261.00,1285.00 L2261.00,1282.00 L2263.00,1281.00 L2263.00,1278.00 L2267.00,1273.00 L2267.00,1268.00 L2269.00,1267.00 L2269.00,1258.00 L2271.00,1257.00 L2271.00,1246.00 L2273.00,1245.00 L2273.00,1194.00 L2052.00,1194.00 L2049.00,1191.00 L2049.00,968.00 L2047.00,967.00 L2047.00,956.00 L2045.00,955.00 L2045.00,948.00 L2043.00,947.00 L2043.00,942.00 L2041.00,941.00 L2041.00,936.00 L2039.00,935.00 L2039.00,928.00 L2037.00,927.00 L2037.00,924.00 L2033.00,919.00 L2033.00,914.00 L2031.00,913.00 L2031.00,910.00 L2029.00,909.00 L2027.00,902.00 L2023.00,899.00 L2023.00,896.00 L2019.00,893.00 L2019.00,890.00 L2015.00,887.00 L2015.00,884.00 L2007.00,877.00 L2007.00,874.00 L1993.00,860.00 L1990.00,860.00 L1983.00,852.00 L1980.00,852.00 L1971.00,844.00 L1964.00,842.00 L1961.00,838.00 L1958.00,838.00 L1957.00,836.00 L1952.00,836.00 L1951.00,834.00 L1948.00,834.00 L1943.00,830.00 L1938.00,830.00 L1937.00,828.00 L1932.00,828.00 L1931.00,826.00 L1924.00,826.00 L1923.00,824.00 L1914.00,824.00 L1913.00,822.00 L1902.00,822.00 Z" class="logo-branch-left" />
  <path d="M2022.00,642.00 L2026.00,645.00 L2029.00,645.00 L2030.00,647.00 L2033.00,647.00 L2042.00,655.00 L2045.00,655.00 L2050.00,661.00 L2053.00,661.00 L2070.00,678.00 L2070.00,681.00 L2076.00,686.00 L2076.00,689.00 L2082.00,694.00 L2084.00,701.00 L2088.00,704.00 L2088.00,707.00 L2094.00,712.00 L2094.00,715.00 L2102.00,724.00 L2104.00,731.00 L2110.00,736.00 L2110.00,739.00 L2114.00,742.00 L2116.00,749.00 L2120.00,752.00 L2120.00,755.00 L2124.00,758.00 L2124.00,761.00 L2128.00,764.00 L2128.00,767.00 L2132.00,770.00 L2132.00,773.00 L2136.00,776.00 L2136.00,779.00 L2140.00,782.00 L2140.00,785.00 L2144.00,788.00 L2144.00,791.00 L2148.00,794.00 L2148.00,797.00 L2154.00,802.00 L2154.00,805.00 L2162.00,814.00 L2164.00,821.00 L2168.00,824.00 L2168.00,827.00 L2174.00,832.00 L2176.00,839.00 L2180.00,842.00 L2180.00,845.00 L2186.00,850.00 L2186.00,853.00 L2194.00,862.00 L2196.00,869.00 L2200.00,872.00 L2200.00,875.00 L2204.00,878.00 L2204.00,881.00 L2210.00,886.00 L2212.00,893.00 L2218.00,898.00 L2218.00,901.00 L2222.00,904.00 L2222.00,907.00 L2226.00,910.00 L2226.00,913.00 L2230.00,916.00 L2230.00,919.00 L2234.00,922.00 L2234.00,925.00 L2238.00,928.00 L2238.00,931.00 L2242.00,934.00 L2242.00,937.00 L2246.00,940.00 L2246.00,943.00 L2250.00,946.00 L2250.00,949.00 L2254.00,952.00 L2254.00,955.00 L2258.00,958.00 L2258.00,961.00 L2262.00,964.00 L2262.00,967.00 L2266.00,970.00 L2266.00,973.00 L2270.00,976.00 L2270.00,979.00 L2274.00,982.00 L2274.00,985.00 L2278.00,988.00 L2278.00,991.00 L2282.00,994.00 L2282.00,997.00 L2286.00,1000.00 L2286.00,1003.00 L2290.00,1006.00 L2290.00,1009.00 L2294.00,1012.00 L2294.00,1015.00 L2298.00,1018.00 L2298.00,1021.00 L2302.00,1024.00 L2302.00,1027.00 L2306.00,1030.00 L2306.00,1033.00 L2310.00,1036.00 L2310.00,1039.00 L2314.00,1042.00 L2314.00,1045.00 L2318.00,1048.00 L2318.00,1051.00 L2322.00,1054.00 L2322.00,1057.00 L2327.00,1061.00 L2327.00,1058.00 L2329.00,1057.00 L2329.00,1048.00 L2331.00,1047.00 L2331.00,1040.00 L2333.00,1039.00 L2333.00,1034.00 L2335.00,1033.00 L2335.00,1028.00 L2337.00,1027.00 L2337.00,1022.00 L2339.00,1021.00 L2341.00,1010.00 L2343.00,1009.00 L2343.00,1006.00 L2345.00,1005.00 L2345.00,1002.00 L2349.00,997.00 L2349.00,992.00 L2351.00,991.00 L2351.00,988.00 L2355.00,985.00 L2355.00,982.00 L2357.00,981.00 L2357.00,978.00 L2359.00,977.00 L2361.00,970.00 L2365.00,967.00 L2367.00,960.00 L2375.00,951.00 L2377.00,944.00 L2381.00,941.00 L2381.00,938.00 L2385.00,935.00 L2385.00,932.00 L2389.00,929.00 L2389.00,926.00 L2397.00,917.00 L2399.00,910.00 L2397.00,909.00 L2397.00,906.00 L2393.00,903.00 L2393.00,900.00 L2389.00,897.00 L2389.00,894.00 L2385.00,891.00 L2385.00,888.00 L2381.00,885.00 L2381.00,882.00 L2379.00,881.00 L2379.00,878.00 L2375.00,875.00 L2375.00,872.00 L2369.00,867.00 L2369.00,864.00 L2365.00,861.00 L2365.00,858.00 L2361.00,855.00 L2361.00,852.00 L2357.00,849.00 L2357.00,846.00 L2349.00,837.00 L2347.00,830.00 L2343.00,827.00 L2343.00,824.00 L2339.00,821.00 L2339.00,818.00 L2335.00,815.00 L2335.00,812.00 L2331.00,809.00 L2331.00,806.00 L2327.00,803.00 L2327.00,800.00 L2323.00,797.00 L2323.00,794.00 L2319.00,791.00 L2319.00,788.00 L2315.00,785.00 L2315.00,782.00 L2311.00,779.00 L2311.00,776.00 L2307.00,773.00 L2307.00,770.00 L2303.00,767.00 L2303.00,764.00 L2299.00,761.00 L2299.00,758.00 L2295.00,755.00 L2295.00,752.00 L2291.00,749.00 L2289.00,742.00 L2285.00,739.00 L2285.00,736.00 L2281.00,733.00 L2281.00,730.00 L2277.00,727.00 L2277.00,724.00 L2273.00,721.00 L2273.00,718.00 L2265.00,709.00 L2265.00,706.00 L2263.00,705.00 L2263.00,702.00 L2259.00,699.00 L2259.00,696.00 L2253.00,691.00 L2253.00,688.00 L2235.00,670.00 L2232.00,670.00 L2227.00,664.00 L2220.00,662.00 L2217.00,658.00 L2214.00,658.00 L2209.00,654.00 L2204.00,654.00 L2203.00,652.00 L2200.00,652.00 L2199.00,650.00 L2194.00,650.00 L2193.00,648.00 L2178.00,646.00 L2177.00,644.00 L2166.00,644.00 L2165.00,642.00 L2022.00,642.00 Z" class="logo-star-swoosh" fill="url(#jlyGoldGradient)" />
  <path d="M2735.00,546.00 L2730.00,550.00 L2730.00,553.00 L2726.00,556.00 L2724.00,563.00 L2720.00,566.00 L2720.00,569.00 L2716.00,572.00 L2716.00,575.00 L2712.00,578.00 L2712.00,581.00 L2706.00,586.00 L2706.00,589.00 L2702.00,592.00 L2702.00,595.00 L2698.00,598.00 L2698.00,601.00 L2694.00,604.00 L2694.00,607.00 L2690.00,610.00 L2690.00,613.00 L2686.00,616.00 L2686.00,619.00 L2682.00,622.00 L2682.00,625.00 L2678.00,628.00 L2678.00,631.00 L2674.00,634.00 L2674.00,637.00 L2670.00,640.00 L2670.00,643.00 L2664.00,648.00 L2662.00,655.00 L2658.00,658.00 L2658.00,661.00 L2652.00,666.00 L2652.00,669.00 L2648.00,672.00 L2648.00,675.00 L2644.00,678.00 L2644.00,681.00 L2640.00,684.00 L2640.00,687.00 L2636.00,690.00 L2636.00,693.00 L2632.00,696.00 L2632.00,699.00 L2628.00,702.00 L2628.00,705.00 L2624.00,708.00 L2624.00,711.00 L2620.00,714.00 L2620.00,717.00 L2616.00,720.00 L2616.00,723.00 L2610.00,728.00 L2610.00,731.00 L2606.00,734.00 L2604.00,741.00 L2598.00,746.00 L2598.00,749.00 L2594.00,752.00 L2594.00,755.00 L2590.00,758.00 L2590.00,761.00 L2586.00,764.00 L2586.00,767.00 L2582.00,770.00 L2582.00,773.00 L2578.00,776.00 L2578.00,779.00 L2574.00,782.00 L2574.00,785.00 L2570.00,788.00 L2570.00,791.00 L2566.00,794.00 L2566.00,797.00 L2562.00,800.00 L2562.00,803.00 L2558.00,806.00 L2558.00,809.00 L2554.00,812.00 L2554.00,815.00 L2550.00,818.00 L2550.00,821.00 L2546.00,824.00 L2546.00,827.00 L2540.00,832.00 L2540.00,835.00 L2536.00,838.00 L2536.00,841.00 L2532.00,844.00 L2532.00,847.00 L2528.00,850.00 L2528.00,853.00 L2522.00,858.00 L2522.00,861.00 L2516.00,866.00 L2516.00,869.00 L2510.00,874.00 L2510.00,877.00 L2504.00,882.00 L2504.00,885.00 L2498.00,890.00 L2498.00,893.00 L2492.00,898.00 L2492.00,901.00 L2478.00,914.00 L2478.00,917.00 L2453.00,942.00 L2450.00,942.00 L2431.00,962.00 L2428.00,962.00 L2415.00,976.00 L2412.00,976.00 L2396.00,992.00 L2396.00,995.00 L2380.00,1010.00 L2380.00,1013.00 L2374.00,1018.00 L2374.00,1021.00 L2368.00,1026.00 L2368.00,1029.00 L2364.00,1032.00 L2364.00,1035.00 L2356.00,1044.00 L2356.00,1047.00 L2354.00,1048.00 L2352.00,1055.00 L2348.00,1058.00 L2348.00,1063.00 L2346.00,1064.00 L2346.00,1067.00 L2344.00,1068.00 L2344.00,1071.00 L2340.00,1076.00 L2340.00,1081.00 L2338.00,1082.00 L2338.00,1087.00 L2336.00,1088.00 L2336.00,1093.00 L2334.00,1094.00 L2334.00,1101.00 L2332.00,1102.00 L2332.00,1111.00 L2330.00,1112.00 L2330.00,1121.00 L2328.00,1122.00 L2328.00,1133.00 L2326.00,1134.00 L2326.00,1243.00 L2324.00,1244.00 L2324.00,1257.00 L2322.00,1258.00 L2322.00,1267.00 L2320.00,1268.00 L2320.00,1275.00 L2318.00,1276.00 L2316.00,1287.00 L2314.00,1288.00 L2314.00,1291.00 L2312.00,1292.00 L2312.00,1295.00 L2310.00,1296.00 L2310.00,1299.00 L2308.00,1300.00 L2306.00,1307.00 L2302.00,1310.00 L2302.00,1313.00 L2296.00,1318.00 L2296.00,1321.00 L2287.00,1330.00 L2284.00,1330.00 L2284.00,1333.00 L2337.00,1333.00 L2338.00,1331.00 L2357.00,1331.00 L2358.00,1329.00 L2367.00,1329.00 L2368.00,1327.00 L2375.00,1327.00 L2376.00,1325.00 L2387.00,1323.00 L2388.00,1321.00 L2391.00,1321.00 L2392.00,1319.00 L2395.00,1319.00 L2396.00,1317.00 L2399.00,1317.00 L2400.00,1315.00 L2407.00,1313.00 L2416.00,1305.00 L2419.00,1305.00 L2426.00,1297.00 L2429.00,1297.00 L2439.00,1287.00 L2439.00,1284.00 L2447.00,1277.00 L2447.00,1274.00 L2451.00,1271.00 L2451.00,1268.00 L2453.00,1267.00 L2455.00,1260.00 L2459.00,1257.00 L2459.00,1252.00 L2461.00,1251.00 L2461.00,1248.00 L2465.00,1243.00 L2465.00,1238.00 L2467.00,1237.00 L2467.00,1232.00 L2469.00,1231.00 L2469.00,1224.00 L2471.00,1223.00 L2471.00,1214.00 L2473.00,1213.00 L2473.00,1194.00 L2475.00,1193.00 L2475.00,1060.00 L2477.00,1059.00 L2477.00,1056.00 L2481.00,1053.00 L2481.00,1050.00 L2485.00,1047.00 L2485.00,1044.00 L2489.00,1041.00 L2489.00,1038.00 L2493.00,1035.00 L2493.00,1032.00 L2497.00,1029.00 L2497.00,1026.00 L2501.00,1023.00 L2501.00,1020.00 L2505.00,1017.00 L2505.00,1014.00 L2509.00,1011.00 L2509.00,1008.00 L2513.00,1005.00 L2513.00,1002.00 L2517.00,999.00 L2517.00,996.00 L2521.00,993.00 L2521.00,990.00 L2525.00,987.00 L2525.00,984.00 L2529.00,981.00 L2529.00,978.00 L2533.00,975.00 L2533.00,972.00 L2537.00,969.00 L2537.00,966.00 L2541.00,963.00 L2541.00,960.00 L2545.00,957.00 L2545.00,954.00 L2549.00,951.00 L2549.00,948.00 L2553.00,945.00 L2553.00,942.00 L2557.00,939.00 L2557.00,936.00 L2563.00,931.00 L2563.00,928.00 L2571.00,919.00 L2573.00,912.00 L2577.00,909.00 L2577.00,906.00 L2581.00,903.00 L2581.00,900.00 L2585.00,897.00 L2585.00,894.00 L2589.00,891.00 L2589.00,888.00 L2593.00,885.00 L2593.00,882.00 L2597.00,879.00 L2597.00,876.00 L2601.00,873.00 L2601.00,870.00 L2607.00,865.00 L2607.00,862.00 L2611.00,859.00 L2611.00,856.00 L2619.00,847.00 L2621.00,840.00 L2625.00,837.00 L2625.00,834.00 L2631.00,829.00 L2631.00,826.00 L2635.00,823.00 L2635.00,820.00 L2639.00,817.00 L2639.00,814.00 L2643.00,811.00 L2643.00,808.00 L2647.00,805.00 L2647.00,802.00 L2651.00,799.00 L2651.00,796.00 L2655.00,793.00 L2655.00,790.00 L2659.00,787.00 L2659.00,784.00 L2665.00,779.00 L2670.00,785.00 L2673.00,785.00 L2684.00,797.00 L2687.00,797.00 L2696.00,807.00 L2699.00,807.00 L2708.00,817.00 L2711.00,817.00 L2722.00,829.00 L2725.00,829.00 L2735.00,839.00 L2735.00,546.00 Z" class="logo-arrow" fill="url(#jlyGoldGradient)" />
</svg>